<svg width="2737" height="434" xmlns="http://www.w3.org/2000/svg" xmlns:xlink="http://www.w3.org/1999/xlink" xml:space="preserve" overflow="hidden"><g transform="translate(-646 -677)"><rect x="648.5" y="679.5" width="454" height="423" stroke="#172C51" stroke-width="4.58333" stroke-miterlimit="8" fill="#FFFFFF"/><text font-family="Calibri,Calibri_MSFontService,sans-serif" font-weight="400" font-size="83" transform="matrix(1 0 0 1 826.971 918)">DB</text><path d="M1124.92 888.854 1384.18 888.854 1384.18 891.146 1124.92 891.146ZM1129.5 903.75 1102 890 1129.5 876.25ZM1379.59 876.25 1407.09 890 1379.59 903.75Z"/><rect x="1407.5" y="679.5" width="455" height="423" stroke="#172C51" stroke-width="4.58333" stroke-miterlimit="8" fill="#FFFFFF"/><text font-family="Calibri,Calibri_MSFontService,sans-serif" font-weight="400" font-size="83" transform="matrix(1 0 0 1 1551.65 868)">Flask</text><text font-family="Calibri,Calibri_MSFontService,sans-serif" font-weight="400" font-size="83" transform="matrix(1 0 0 1 1445.2 967)">RESTful</text><text font-family="Calibri,Calibri_MSFontService,sans-serif" font-weight="400" font-size="83" transform="matrix(1 0 0 1 1713.09 967)">API</text><rect x="2925.5" y="685.5" width="455" height="423" stroke="#172C51" stroke-width="4.58333" stroke-miterlimit="8" fill="#FFFFFF"/><text font-family="Calibri,Calibri_MSFontService,sans-serif" font-weight="400" font-size="83" transform="matrix(1 0 0 1 3014.91 924)">Browser</text><path d="M2642.92 894.854 2902.18 894.855 2902.18 897.146 2642.92 897.146ZM2647.5 909.75 2620 896 2647.5 882.25ZM2897.59 882.25 2925.09 896.001 2897.59 909.75Z"/><rect x="2166.5" y="685.5" width="454" height="423" stroke="#172C51" stroke-width="4.58333" stroke-miterlimit="8" fill="#FFFFFF"/><text font-family="Calibri,Calibri_MSFontService,sans-serif" font-weight="400" font-size="83" transform="matrix(1 0 0 1 2310.52 924)">D3.</text><text font-family="Calibri,Calibri_MSFontService,sans-serif" font-weight="400" font-size="83" transform="matrix(1 0 0 1 2423.96 924)">js</text><path d="M1883.92 894.854 2143.18 894.855 2143.18 897.146 1883.92 897.146ZM1888.5 909.75 1861 896 1888.5 882.25ZM2138.59 882.25 2166.09 896.001 2138.59 909.75Z"/></g></svg>